<?xml version="1.0" standalone="no"?><!DOCTYPE svg PUBLIC "-//W3C//DTD SVG 1.1//EN" "http://www.w3.org/Graphics/SVG/1.1/DTD/svg11.dtd"><svg t="1775924810992" class="icon" viewBox="0 0 1027 1024" version="1.1" xmlns="http://www.w3.org/2000/svg" p-id="4924" xmlns:xlink="http://www.w3.org/1999/xlink" width="200.5859375" height="200"><path d="M1024 298.666667l0-21.333333c0-12.8-8.533333-25.6-19.2-29.866667L597.333333 42.666667c0-23.466667-19.2-42.666667-42.666667-42.666667l-85.333333 0c-23.466667 0-42.666667 19.2-42.666667 42.666667L19.2 247.466667C8.533333 251.733333 0 264.533333 0 277.333333l0 21.333333c0 0 25.6 25.6 85.333333 53.333333L85.333333 426.666667l85.333333 42.666667 0-87.466667c34.133333 10.666667 72.533333 19.2 119.466667 27.733333 19.2 55.466667 49.066667 106.666667 87.466667 142.933333-160 46.933333-273.066667 177.066667-273.066667 326.4 0 192 817.066667 192 817.066667 0 0-104.533333-55.466667-198.4-140.8-262.4 76.8-44.8 142.933333-98.133333 245.333333-106.666667l-59.733333-38.4c0 0 17.066667-38.4 17.066667-38.4-147.2 19.2-181.333333 85.333333-290.133333 134.4-14.933333-6.4-29.866667-10.666667-44.8-14.933333 38.4-36.266667 68.266667-87.466667 87.466667-142.933333C947.2 375.466667 1024 298.666667 1024 298.666667zM512 426.666667c42.666667 0 83.2-2.133333 119.466667-4.266667-8.533333 21.333333-17.066667 36.266667-17.066667 36.266667s-59.733333 27.733333-104.533333 27.733333-102.4-25.6-102.4-25.6-8.533333-14.933333-17.066667-38.4C428.8 424.533333 469.333333 426.666667 512 426.666667zM187.733333 881.066667c0-42.666667 12.8-81.066667 34.133333-117.333333 57.6 70.4 142.933333 145.066667 288 177.066667C465.066667 945.066667 262.4 921.6 187.733333 881.066667zM814.933333 789.333333c12.8 27.733333 21.333333 59.733333 21.333333 91.733333 0-2.133333-66.133333 14.933333-185.6 0-119.466667-14.933333-185.6-53.333333-185.6-53.333333S616.533333 832 814.933333 789.333333zM689.066667 661.333333c27.733333 14.933333 51.2 32 72.533333 53.333333C616.533333 746.666667 373.333333 723.2 300.8 682.666667c27.733333-19.2 57.6-34.133333 91.733333-44.8C539.733333 693.333333 650.666667 676.266667 689.066667 661.333333z" fill="#8B4513" p-id="4925"></path></svg>